<?xml version="1.0" encoding="utf-8"?>
<!-- Generator: Adobe Illustrator 24.1.0, SVG Export Plug-In . SVG Version: 6.00 Build 0)  -->
<svg version="1.1" id="Layer_1" xmlns="http://www.w3.org/2000/svg" xmlns:xlink="http://www.w3.org/1999/xlink" x="0px" y="0px"
	 viewBox="0 0 32 32" style="enable-background:new 0 0 32 32;" xml:space="preserve">
<style type="text/css">
	.st0{fill:#FFFFFF;stroke:#FFFFFF;stroke-miterlimit:10;}
	.st1{fill:none;}
</style>
<path class="st0" d="M26,6v2.2L5.6,11.9c-1,0.2-1.7,1-1.6,2v4.3c0,1,0.7,1.8,1.6,2L8,20.6V24c0,1.1,0.9,2,2,2h8c1.1,0,2-0.9,2-2
	v-1.3l6,1.1V26h2V6H26z M18,24h-8v-3.1l8,1.5V24z M6,18.2v-4.3l20-3.6v11.6L6,18.2z"/>
<path class="st1" d="M0,0h32v32H0V0z"/>
</svg>
