<?xml version="1.0" encoding="utf-8"?>
<!-- Generator: Adobe Illustrator 24.1.0, SVG Export Plug-In . SVG Version: 6.00 Build 0)  -->
<svg version="1.1" id="Layer_1" xmlns="http://www.w3.org/2000/svg" xmlns:xlink="http://www.w3.org/1999/xlink" x="0px" y="0px"
	 viewBox="0 0 512 512" style="enable-background:new 0 0 512 512;" xml:space="preserve">
<style type="text/css">
	.st0{fill:#FFFFFF;}
</style>
<path class="st0" d="M431.3,122.1l73.5-47.4c7.4-4.9,9.3-14.8,4.4-22.2c0,0,0,0,0,0l-8.9-13.3c-4.9-7.4-14.8-9.3-22.2-4.4
	c0,0,0,0,0,0l-110.1,71c-49.8-8.8-97-9.7-112.2-9.7C219.6,96,0,100.6,0,208.1v160.2c0,30.3,27.5,57.7,72,77.9V344.3
	c0-13.3,10.7-24,24-24s24,10.7,24,24v118.9c33.1,9.1,71.1,15.1,112,16.7V376.4c0-13.3,10.7-24,24-24c13.3,0,24,10.7,24,24V480
	c40.9-1.7,79-7.6,112-16.7V344.3c0-13.3,10.7-24,24-24s24,10.7,24,24v101.9c44.5-20.2,72-47.6,72-77.9V208.2
	C512,164.8,476.2,138.4,431.3,122.1z M256,272.2c-114.9,0-208-28.7-208-64.1s93.1-64.1,208-64.1c17.1,0,33.7,0.7,49.7,1.9l-72.8,47
	c-7.4,4.9-9.3,14.8-4.4,22.2c0,0,0,0,0,0l8.9,13.3c4.9,7.4,14.8,9.3,22.2,4.4c0,0,0,0,0,0l118.6-76.5c52,11.6,85.9,30.4,85.9,51.8
	C464,243.5,370.9,272.2,256,272.2z"/>
</svg>
