<?xml version="1.0" encoding="utf-8"?>
<!-- Generator: Adobe Illustrator 24.1.0, SVG Export Plug-In . SVG Version: 6.00 Build 0)  -->
<svg version="1.1" id="Layer_1" xmlns="http://www.w3.org/2000/svg" xmlns:xlink="http://www.w3.org/1999/xlink" x="0px" y="0px"
	 viewBox="0 0 32 32" style="enable-background:new 0 0 32 32;" xml:space="preserve">
<style type="text/css">
	.st0{fill:#FFFFFF;}
</style>
<g>
	<path class="st0" d="M13.7,19.5L12.2,18c-0.2-0.2-0.6-0.2-0.9,0c-0.2,0.2-0.2,0.6,0,0.9l1.5,1.5c0.2,0.2,0.6,0.2,0.9,0
		S14,19.7,13.7,19.5z"/>
	<path class="st0" d="M10.2,20l1.5,1.5c0.2,0.2,0.2,0.6,0,0.9c-0.2,0.2-0.6,0.2-0.9,0l-1.5-1.5c-0.2-0.2-0.2-0.6,0-0.9
		C9.6,19.8,10,19.8,10.2,20z"/>
	<path class="st0" d="M27.5,2.4c-0.1-0.3-0.5-0.5-0.9-0.4S26.1,2.6,26.2,3c0.1,0.2,0.2,0.3,0.3,0.3c0.1,0.1,0.2,0.2,0.3,0.3L27,3.9
		l-0.9,0.4L25.9,4c-0.1-0.1,0-0.3,0-0.4s0-0.3,0-0.5c-0.1-0.3-0.5-0.5-0.9-0.4s-0.5,0.5-0.4,0.9C24.7,3.8,24.8,3.9,25,4
		c0.1,0.1,0.2,0.2,0.3,0.3l0.2,0.4l-0.9,0.4l-0.2-0.4c-0.1-0.1-0.1-0.3,0-0.4c0-0.2,0-0.3,0-0.5c-0.1-0.3-0.5-0.5-0.9-0.4
		S22.9,4,23.1,4.4c0.1,0.2,0.2,0.3,0.3,0.3c0.1,0.1,0.2,0.2,0.3,0.3l0.2,0.4l-0.4,0.2c-0.4,0.2-0.5,0.8-0.2,1.2l-0.1-0.1l-8.6,8.6
		c-0.5-1.2-0.2-2.6,0.7-3.6c0.6-0.6,0.6-1.6,0-2.2c-0.6-0.6-1.6-0.6-2.2,0c-0.9,0.9-1.5,2.1-1.8,3.3c-0.3,1.4-1.4,2.4-2.8,2.5
		C7,15.3,5.4,16,4.1,17.3c-2.8,2.9-2.8,7.6,0.1,10.4c2.8,2.8,7.4,2.7,10.2-0.1c1.2-1.3,2-2.9,2.1-4.5c0.1-1.4,1.1-2.5,2.5-2.8
		c0.5-0.1,1.1-0.3,1.6-0.6c0.8-0.4,1.1-1.3,0.7-2.1S20,16.6,19.2,17c-0.9,0.4-1.9,0.5-2.8,0.1l8.6-8.6c0.3,0.3,0.9,0.2,1.1-0.1
		l1.1-1.8c0.1-0.2,0.4-0.3,0.6-0.2c0.6,0.2,1.2,0.1,1.7-0.4c0.5-0.6,0.5-1.5,0-2.1c-0.5-0.5-1.2-0.6-1.9-0.3l-0.2-0.3
		c-0.1-0.1,0-0.3,0-0.4C27.6,2.7,27.6,2.6,27.5,2.4z M13.2,15.2c0.3,0.2,0.5,0.5,0.6,0.8l-0.2,0.2c-0.2,0.2-0.2,0.6,0,0.9l1,1
		c0.2,0.2,0.6,0.2,0.9,0c0.3,0.1,0.7,0.1,1,0.2c0.1,0,0.2,0,0.2,0c0,0,0,0,0.1,0s0,0,0.1,0l0,0c0.2,0,0.8,0.1,1.4,0c0,0,0.1,0,0.1,0
		c0.4-0.1,0.8-0.2,1,0.4c0.1,0.2,0,0.4-0.2,0.6c-0.1,0.1-0.5,0.2-0.7,0.3c-0.8,0.2-1.4,0.5-1.9,1.1c-0.7,0.7-1.2,1.5-1.3,2.4
		c-0.1,0.7-0.2,1.4-0.5,2c-0.3,0.6-0.7,1.2-1.2,1.7c-0.6,0.6-1.3,1-2,1.3c-0.7,0.3-1.5,0-1.8-0.8c-0.1-0.1-0.1-0.3-0.1-0.5
		c0-0.3,0.1-0.5,0.1-0.8c0.2-0.8,0.3-1.6-0.3-2.3l-2.2-2.2c-1-1-1-2.6,0-3.6l0,0c0.8-0.8,1.8-1.2,2.9-1.2c0.6,0,1.2-0.4,1.5-0.9
		c0.2-0.4,0.7-0.6,1.2-0.6C12.9,15.1,13.1,15.1,13.2,15.2z M9.4,24.8c0.1,0.1,0.1,0.3,0,0.4l-1.1,1.1c-0.1,0.1-0.3,0.1-0.4,0
		l-2.4-2.4c-0.1-0.1-0.1-0.3,0-0.4l1.1-1c0.1-0.1,0.3-0.1,0.4,0L9.4,24.8z"/>
</g>
</svg>
